<?xml version="1.0" encoding="UTF-8" standalone="no"?>
<svg width="64px" height="77px" viewBox="0 0 64 77" version="1.1" xmlns="http://www.w3.org/2000/svg" xmlns:xlink="http://www.w3.org/1999/xlink">
    <!-- Generator: Sketch 3.8.3 (29802) - http://www.bohemiancoding.com/sketch -->
    <title>Screen_Shot_2016-06-12_at_2.18.29_PM</title>
    <desc>Created with Sketch.</desc>
    <defs></defs>
    <g id="Page-1" stroke="none" stroke-width="1" fill="none" fill-rule="evenodd">
        <g id="Desktop-HD" transform="translate(-80.000000, -79.000000)" fill="#FFCDB2">
            <g id="Screen_Shot_2016-06-12_at_2.18.29_PM" transform="translate(80.000000, 79.000000)">
                <path d="M29.5542843,1.19733416 C30.3434443,0.775751235 31.0475655,0.0182729767 32,0.052548011 C32.9524345,0.0182729767 33.6565557,0.775751235 34.4457157,1.19733416 C42.5856291,6.1363666 50.7391486,11.0445515 58.8790619,15.9801564 C60.5730347,16.9432849 62.1649609,18.0914986 63.9337678,18.9072444 C64.0290113,31.8494973 63.9439725,44.7917503 63.977988,57.7305757 C53.5692397,64.2531147 42.9529966,70.4329034 32.4864219,76.8594724 C31.5509952,77.3256128 30.7652367,76.3213543 29.9862814,75.9443289 C22.0606658,71.1252591 14.1146409,66.3438918 6.1822222,61.5419595 C4.13448805,60.2600733 2.00511665,59.1152871 0.0220119795,57.7305757 C0.0560274971,44.7917503 -0.0290112967,31.8494973 0.0662321523,18.9072444 C1.00846199,18.4856615 1.89286544,17.9406884 2.77386735,17.4025704 C11.692736,11.9905425 20.632014,6.60936207 29.5542843,1.19733416 Z M12.8900823,29.8855379 C13.49896,32.6001206 12.8254528,35.503216 13.2234343,38.2623562 C14.7745419,39.4139974 16.4991287,40.2914383 18.1931014,41.1962992 C18.2543294,38.6256716 18.2067076,36.055044 18.227117,33.487844 C18.7611606,33.6660741 19.3326213,33.7723267 19.8190432,34.0773746 C22.7205668,35.8665313 25.656106,37.6008481 28.5984482,39.3214548 C29.1018779,39.568235 29.5610874,40.037803 29.4488362,40.6513261 C29.4420331,50.1112356 29.4624424,59.5711451 29.4386315,69.034482 C28.9998314,68.8905269 28.5746374,68.7191517 28.1596481,68.5272115 C22.3736085,64.962608 16.5331442,61.4871195 10.7266953,57.9533634 C8.96128998,56.9491049 7.29793118,55.7529062 5.45429013,54.8926029 C5.37945599,53.9226194 5.37265289,52.9526359 5.37945599,51.979225 C5.4066684,43.1534036 5.35224357,34.3275823 5.40326685,25.5051885 C7.9238167,26.9241749 10.3253122,28.545384 12.8900823,29.8855379 Z M39.2453052,37.3335028 C45.7150567,33.4467139 52.1507926,29.49823 58.6035363,25.577166 C58.6375518,34.8417078 58.5967331,44.1062496 58.6239456,53.3707914 C58.6001347,53.8746344 58.6579611,54.4024699 58.4742773,54.8823204 C50.8752107,59.3277923 43.3815922,63.9549219 35.847155,68.5135015 C35.5104014,68.6437466 35.1702462,68.7534267 34.823288,68.8493968 C34.7790678,59.2729523 34.8334926,49.6999352 34.7960755,40.1234906 C36.1907118,39.0541095 37.7724333,38.2829213 39.2453052,37.3335028 Z M45.0857696,14.6777051 C45.5211682,14.50633 46.0382041,14.5166125 46.4361856,14.7839578 C49.5656132,16.6279546 52.5861912,18.6673191 55.8108623,20.3399408 C55.7360281,20.6141411 55.661194,20.8917689 55.5863598,21.1693966 C52.5827897,22.7974608 49.6982738,24.6517401 46.7831439,26.4374694 C41.9665466,29.3919774 37.0649106,32.2093852 32.3129428,35.2667182 C28.7413134,33.018276 24.9962049,31.044034 21.5096144,28.6687741 C22.5504892,27.8838759 23.6798044,27.2360777 24.8159227,26.6054171 C31.5611998,22.6089481 38.3711064,18.7221592 45.0857696,14.6777051 Z M31.1700214,6.55109451 C31.7516867,6.1397941 32.523839,6.28032174 33.0646857,6.68819465 C35.6974868,8.3333963 38.374508,9.90319287 41.0107106,11.5415395 C33.4762735,15.7368037 26.0438829,20.1171531 18.5400597,24.3741123 C17.7270888,24.7682752 17.0263692,25.515471 16.0875409,25.570311 C13.9955866,24.3398373 11.9478524,23.0339585 9.83548878,21.8377598 C9.15517843,21.4778719 8.58031619,20.9671739 8.03266636,20.4359109 C10.0804005,19.4385074 11.9614586,18.1394836 13.9275555,17.0015525 C19.6693749,13.5089265 25.4384067,10.060858 31.1700214,6.55109451 Z" id="Combined-Shape"></path>
            </g>
        </g>
    </g>
</svg>