<?xml version="1.0" encoding="UTF-8" standalone="no"?>
<svg width="464px" height="526px" viewBox="0 0 464 526" version="1.1" xmlns="http://www.w3.org/2000/svg" xmlns:xlink="http://www.w3.org/1999/xlink">
    <!-- Generator: Sketch 3.8.3 (29802) - http://www.bohemiancoding.com/sketch -->
    <title>Screen_Shot_2016-06-12_at_2.18.29_PM</title>
    <desc>Created with Sketch.</desc>
    <defs>
        <path d="M35.5637708,329.515432 C35.5637708,329.515432 154.671183,396.618393 185,396.618393 C254.295336,396.618393 334.436229,329.515432 334.436229,329.515432 L334.436229,396.618393 C334.436229,396.618393 239.491608,442.887895 185,442.887895 C139.867455,442.887895 35.5637708,396.618393 35.5637708,396.618393 L35.5637708,329.515432 Z" id="path-1"></path>
        <filter x="-50%" y="-50%" width="200%" height="200%" filterUnits="objectBoundingBox" id="filter-2">
            <feOffset dx="0" dy="2" in="SourceAlpha" result="shadowOffsetOuter1"></feOffset>
            <feGaussianBlur stdDeviation="42" in="shadowOffsetOuter1" result="shadowBlurOuter1"></feGaussianBlur>
            <feColorMatrix values="0 0 0 0 0   0 0 0 0 0   0 0 0 0 0  0 0 0 0.5 0" type="matrix" in="shadowBlurOuter1"></feColorMatrix>
        </filter>
    </defs>
    <g id="Page-1" stroke="none" stroke-width="1" fill="none" fill-rule="evenodd">
        <g id="Desktop-HD" transform="translate(-846.000000, -326.000000)">
            <g id="Screen_Shot_2016-06-12_at_2.18.29_PM" transform="translate(893.000000, 326.000000)">
                <g id="Rectangle-2" fill-opacity="1" fill="black">
                    <use filter="url(#filter-2)" xlink:href="#path-1"></use>
                </g>
                <path d="M170.860706,6.88855885 C175.423037,4.46308827 179.493738,0.105128944 185,0.302321674 C190.506262,0.105128944 194.576963,4.46308827 199.139294,6.88855885 C246.198168,35.3040312 293.335703,63.5420301 340.394577,91.9377832 C350.187857,97.4788989 359.39118,104.084855 369.617095,108.778042 C370.167722,183.238017 369.676091,257.697992 369.872743,332.138247 C309.697167,369.664024 248.322012,405.217873 187.812127,442.19151 C182.404191,444.873331 177.861525,439.095584 173.358189,436.926464 C127.538224,409.201166 81.6002676,381.69278 35.7409721,354.066079 C23.902509,346.691071 11.5920806,340.104834 0.127256757,332.138247 C0.323908967,257.697992 -0.167721559,183.238017 0.382904631,108.778042 C5.83017087,106.352572 10.9431283,103.217207 16.0364206,100.121281 C67.5986302,68.9845495 119.278831,38.0252909 170.860706,6.88855885 Z M74.5207881,171.938874 C78.0408626,187.556538 74.1471488,204.258762 76.4479797,220.132777 C85.4153205,226.758453 95.3855876,231.806586 105.178868,237.012474 C105.532842,222.22302 105.257529,207.433565 105.37552,192.66383 C108.46296,193.689232 111.766717,194.300529 114.578843,196.055545 C131.353277,206.349005 148.324363,216.326957 165.334779,226.226032 C168.245232,227.64582 170.900036,230.34736 170.251084,233.87711 C170.211754,288.302303 170.329745,342.727497 170.192089,397.17241 C167.655275,396.3442 165.197122,395.358236 162.797965,394.253957 C129.347424,373.745913 95.5822398,353.750571 62.0137075,333.42 C51.8074577,327.642253 42.1911646,320.760227 31.5326148,315.810689 C31.0999799,310.230135 31.0606495,304.649581 31.0999799,299.049307 C31.2573017,248.272179 30.9426582,197.495051 31.2376365,146.737643 C45.8095653,154.901422 59.6932114,164.228638 74.5207881,171.938874 Z M226.886921,214.788854 C264.290171,192.427198 301.49677,169.710596 338.801694,147.151748 C338.998346,200.452942 338.762364,253.754137 338.919685,307.055332 C338.782029,309.954065 339.116337,312.990833 338.054416,315.751531 C294.122312,341.327429 250.79983,367.948447 207.241365,394.17508 C205.294508,394.924412 203.327986,395.555429 201.322133,396.107569 C201.066486,341.01192 201.381129,285.935991 201.164812,230.840342 C209.227552,224.687929 218.37188,220.251092 226.886921,214.788854 Z M260.652105,84.4444595 C263.169254,83.4584958 266.158367,83.5176536 268.459198,85.0557569 C286.551202,95.6647258 304.013918,107.397693 322.656547,117.020698 C322.223913,118.59824 321.791278,120.195501 321.358643,121.792762 C303.994253,131.159417 287.318145,141.827544 270.465051,152.101285 C242.619098,169.099298 214.281514,185.308541 186.8092,202.898132 C166.160718,189.962289 144.50931,178.603988 124.352458,164.938532 C130.370016,160.422818 136.898869,156.695876 143.467053,153.067529 C182.463186,130.074857 221.832959,107.713202 260.652105,84.4444595 Z M180.201686,37.6900632 C183.564439,35.3237505 188.028444,36.1322407 191.155214,38.4788342 C206.376095,47.9440852 221.852624,56.9755122 237.093171,66.4013247 C193.534706,90.5377148 150.566198,115.738946 107.18472,140.230283 C102.484732,142.497999 98.4336969,146.796801 93.0060959,147.112309 C80.9119849,140.03309 69.0735218,132.520047 56.8614195,125.638021 C52.9283753,123.567497 49.604953,120.629325 46.4388524,117.572838 C58.2773154,111.83453 69.1521827,104.360925 80.5186805,97.8141265 C113.713574,77.7201874 147.065789,57.8825988 180.201686,37.6900632 Z" id="Combined-Shape" fill="#000000"></path>
            </g>
        </g>
    </g>
</svg>